<mxfile host="app.diagrams.net" agent="Mozilla/5.0 (Windows NT 10.0; Win64; x64) AppleWebKit/537.36 (KHTML, like Gecko) Chrome/129.0.0.0 Safari/537.36" version="24.7.17">
  <diagram id="C5RBs43oDa-KdzZeNtuy" name="Page-1">
    <mxGraphModel dx="2744" dy="817" grid="1" gridSize="10" guides="1" tooltips="1" connect="1" arrows="1" fold="1" page="1" pageScale="1" pageWidth="827" pageHeight="1169" math="0" shadow="0">
      <root>
        <mxCell id="WIyWlLk6GJQsqaUBKTNV-0" />
        <mxCell id="WIyWlLk6GJQsqaUBKTNV-1" parent="WIyWlLk6GJQsqaUBKTNV-0" />
        <mxCell id="o_6xJmgHsbREOn0kz3Pv-0" value="Kurzusfelvetel" style="ellipse;whiteSpace=wrap;html=1;" vertex="1" parent="WIyWlLk6GJQsqaUBKTNV-1">
          <mxGeometry x="180" y="60" width="120" height="80" as="geometry" />
        </mxCell>
        <mxCell id="o_6xJmgHsbREOn0kz3Pv-1" value="egyetem" style="rhombus;whiteSpace=wrap;html=1;" vertex="1" parent="WIyWlLk6GJQsqaUBKTNV-1">
          <mxGeometry x="380" y="60" width="80" height="80" as="geometry" />
        </mxCell>
        <mxCell id="o_6xJmgHsbREOn0kz3Pv-2" value="tanev" style="rhombus;whiteSpace=wrap;html=1;" vertex="1" parent="WIyWlLk6GJQsqaUBKTNV-1">
          <mxGeometry x="20" y="60" width="80" height="80" as="geometry" />
        </mxCell>
        <mxCell id="o_6xJmgHsbREOn0kz3Pv-3" value="hallgato" style="ellipse;whiteSpace=wrap;html=1;" vertex="1" parent="WIyWlLk6GJQsqaUBKTNV-1">
          <mxGeometry x="-50" y="230" width="120" height="80" as="geometry" />
        </mxCell>
        <mxCell id="o_6xJmgHsbREOn0kz3Pv-4" value="" style="ellipse;whiteSpace=wrap;html=1;" vertex="1" parent="WIyWlLk6GJQsqaUBKTNV-1">
          <mxGeometry x="390" y="230" width="120" height="80" as="geometry" />
        </mxCell>
        <mxCell id="o_6xJmgHsbREOn0kz3Pv-5" value="" style="endArrow=none;html=1;rounded=0;exitX=0.5;exitY=0;exitDx=0;exitDy=0;entryX=0.5;entryY=1;entryDx=0;entryDy=0;" edge="1" parent="WIyWlLk6GJQsqaUBKTNV-1" source="o_6xJmgHsbREOn0kz3Pv-3" target="o_6xJmgHsbREOn0kz3Pv-0">
          <mxGeometry width="50" height="50" relative="1" as="geometry">
            <mxPoint x="110" y="330" as="sourcePoint" />
            <mxPoint x="140" y="170" as="targetPoint" />
          </mxGeometry>
        </mxCell>
        <mxCell id="o_6xJmgHsbREOn0kz3Pv-6" value="" style="endArrow=none;html=1;rounded=0;entryX=0.5;entryY=1;entryDx=0;entryDy=0;exitX=0.5;exitY=0;exitDx=0;exitDy=0;" edge="1" parent="WIyWlLk6GJQsqaUBKTNV-1" source="o_6xJmgHsbREOn0kz3Pv-4" target="o_6xJmgHsbREOn0kz3Pv-0">
          <mxGeometry width="50" height="50" relative="1" as="geometry">
            <mxPoint x="210" y="300" as="sourcePoint" />
            <mxPoint x="260" y="250" as="targetPoint" />
          </mxGeometry>
        </mxCell>
        <mxCell id="o_6xJmgHsbREOn0kz3Pv-7" value="" style="endArrow=none;html=1;rounded=0;exitX=1;exitY=0.5;exitDx=0;exitDy=0;" edge="1" parent="WIyWlLk6GJQsqaUBKTNV-1" source="o_6xJmgHsbREOn0kz3Pv-2" target="o_6xJmgHsbREOn0kz3Pv-0">
          <mxGeometry width="50" height="50" relative="1" as="geometry">
            <mxPoint x="210" y="300" as="sourcePoint" />
            <mxPoint x="260" y="250" as="targetPoint" />
          </mxGeometry>
        </mxCell>
        <mxCell id="o_6xJmgHsbREOn0kz3Pv-8" value="" style="endArrow=none;html=1;rounded=0;entryX=0;entryY=0.5;entryDx=0;entryDy=0;" edge="1" parent="WIyWlLk6GJQsqaUBKTNV-1" source="o_6xJmgHsbREOn0kz3Pv-0" target="o_6xJmgHsbREOn0kz3Pv-1">
          <mxGeometry width="50" height="50" relative="1" as="geometry">
            <mxPoint x="210" y="300" as="sourcePoint" />
            <mxPoint x="260" y="250" as="targetPoint" />
          </mxGeometry>
        </mxCell>
        <mxCell id="o_6xJmgHsbREOn0kz3Pv-9" value="szak" style="ellipse;whiteSpace=wrap;html=1;" vertex="1" parent="WIyWlLk6GJQsqaUBKTNV-1">
          <mxGeometry x="90" y="360" width="120" height="80" as="geometry" />
        </mxCell>
        <mxCell id="o_6xJmgHsbREOn0kz3Pv-10" value="szulev" style="ellipse;whiteSpace=wrap;html=1;" vertex="1" parent="WIyWlLk6GJQsqaUBKTNV-1">
          <mxGeometry x="-50" y="360" width="120" height="80" as="geometry" />
        </mxCell>
        <mxCell id="o_6xJmgHsbREOn0kz3Pv-11" value="hnev" style="ellipse;whiteSpace=wrap;html=1;" vertex="1" parent="WIyWlLk6GJQsqaUBKTNV-1">
          <mxGeometry x="-190" y="360" width="120" height="80" as="geometry" />
        </mxCell>
        <mxCell id="o_6xJmgHsbREOn0kz3Pv-12" value="" style="endArrow=none;html=1;rounded=0;exitX=0.5;exitY=0;exitDx=0;exitDy=0;entryX=0.5;entryY=1;entryDx=0;entryDy=0;" edge="1" parent="WIyWlLk6GJQsqaUBKTNV-1" source="o_6xJmgHsbREOn0kz3Pv-11" target="o_6xJmgHsbREOn0kz3Pv-3">
          <mxGeometry width="50" height="50" relative="1" as="geometry">
            <mxPoint x="90" y="270" as="sourcePoint" />
            <mxPoint x="140" y="220" as="targetPoint" />
          </mxGeometry>
        </mxCell>
        <mxCell id="o_6xJmgHsbREOn0kz3Pv-13" value="" style="endArrow=none;html=1;rounded=0;exitX=0.5;exitY=0;exitDx=0;exitDy=0;entryX=0.5;entryY=1;entryDx=0;entryDy=0;" edge="1" parent="WIyWlLk6GJQsqaUBKTNV-1" source="o_6xJmgHsbREOn0kz3Pv-10" target="o_6xJmgHsbREOn0kz3Pv-3">
          <mxGeometry width="50" height="50" relative="1" as="geometry">
            <mxPoint x="90" y="270" as="sourcePoint" />
            <mxPoint x="140" y="220" as="targetPoint" />
          </mxGeometry>
        </mxCell>
        <mxCell id="o_6xJmgHsbREOn0kz3Pv-14" value="" style="endArrow=none;html=1;rounded=0;entryX=0.5;entryY=1;entryDx=0;entryDy=0;" edge="1" parent="WIyWlLk6GJQsqaUBKTNV-1" source="o_6xJmgHsbREOn0kz3Pv-9" target="o_6xJmgHsbREOn0kz3Pv-3">
          <mxGeometry width="50" height="50" relative="1" as="geometry">
            <mxPoint x="90" y="270" as="sourcePoint" />
            <mxPoint x="140" y="220" as="targetPoint" />
          </mxGeometry>
        </mxCell>
        <mxCell id="o_6xJmgHsbREOn0kz3Pv-20" value="" style="endArrow=none;html=1;rounded=0;entryX=0;entryY=0.5;entryDx=0;entryDy=0;exitX=1;exitY=0.5;exitDx=0;exitDy=0;" edge="1" parent="WIyWlLk6GJQsqaUBKTNV-1" source="o_6xJmgHsbREOn0kz3Pv-23" target="o_6xJmgHsbREOn0kz3Pv-26">
          <mxGeometry width="50" height="50" relative="1" as="geometry">
            <mxPoint x="519.9999999999998" y="405.0000000000001" as="sourcePoint" />
            <mxPoint x="639.9999999999998" y="495" as="targetPoint" />
          </mxGeometry>
        </mxCell>
        <mxCell id="o_6xJmgHsbREOn0kz3Pv-22" value="" style="endArrow=none;html=1;rounded=0;entryX=0.5;entryY=1;entryDx=0;entryDy=0;exitX=0.5;exitY=0;exitDx=0;exitDy=0;" edge="1" parent="WIyWlLk6GJQsqaUBKTNV-1" source="o_6xJmgHsbREOn0kz3Pv-23" target="o_6xJmgHsbREOn0kz3Pv-4">
          <mxGeometry width="50" height="50" relative="1" as="geometry">
            <mxPoint x="450" y="440" as="sourcePoint" />
            <mxPoint x="569.9999999999998" y="180" as="targetPoint" />
          </mxGeometry>
        </mxCell>
        <mxCell id="o_6xJmgHsbREOn0kz3Pv-23" value="kurzus" style="ellipse;whiteSpace=wrap;html=1;" vertex="1" parent="WIyWlLk6GJQsqaUBKTNV-1">
          <mxGeometry x="390" y="360" width="120" height="80" as="geometry" />
        </mxCell>
        <mxCell id="o_6xJmgHsbREOn0kz3Pv-24" value="jovahagyas" style="rhombus;whiteSpace=wrap;html=1;" vertex="1" parent="WIyWlLk6GJQsqaUBKTNV-1">
          <mxGeometry x="610" y="320" width="80" height="80" as="geometry" />
        </mxCell>
        <mxCell id="o_6xJmgHsbREOn0kz3Pv-25" value="id" style="rhombus;whiteSpace=wrap;html=1;" vertex="1" parent="WIyWlLk6GJQsqaUBKTNV-1">
          <mxGeometry x="610" y="230" width="80" height="80" as="geometry" />
        </mxCell>
        <mxCell id="o_6xJmgHsbREOn0kz3Pv-26" value="nyelv" style="rhombus;whiteSpace=wrap;html=1;" vertex="1" parent="WIyWlLk6GJQsqaUBKTNV-1">
          <mxGeometry x="610" y="410" width="80" height="80" as="geometry" />
        </mxCell>
        <mxCell id="o_6xJmgHsbREOn0kz3Pv-27" value="" style="endArrow=none;html=1;rounded=0;entryX=0;entryY=0.5;entryDx=0;entryDy=0;exitX=1;exitY=0.5;exitDx=0;exitDy=0;" edge="1" parent="WIyWlLk6GJQsqaUBKTNV-1" source="o_6xJmgHsbREOn0kz3Pv-23" target="o_6xJmgHsbREOn0kz3Pv-24">
          <mxGeometry width="50" height="50" relative="1" as="geometry">
            <mxPoint x="450" y="440" as="sourcePoint" />
            <mxPoint x="500" y="390" as="targetPoint" />
          </mxGeometry>
        </mxCell>
        <mxCell id="o_6xJmgHsbREOn0kz3Pv-28" value="" style="endArrow=none;html=1;rounded=0;entryX=0;entryY=0.5;entryDx=0;entryDy=0;exitX=1;exitY=0.5;exitDx=0;exitDy=0;" edge="1" parent="WIyWlLk6GJQsqaUBKTNV-1" source="o_6xJmgHsbREOn0kz3Pv-23" target="o_6xJmgHsbREOn0kz3Pv-25">
          <mxGeometry width="50" height="50" relative="1" as="geometry">
            <mxPoint x="450" y="440" as="sourcePoint" />
            <mxPoint x="500" y="390" as="targetPoint" />
          </mxGeometry>
        </mxCell>
        <mxCell id="o_6xJmgHsbREOn0kz3Pv-30" value="kurzusok" style="ellipse;whiteSpace=wrap;html=1;" vertex="1" parent="WIyWlLk6GJQsqaUBKTNV-1">
          <mxGeometry x="405" y="240" width="90" height="60" as="geometry" />
        </mxCell>
        <mxCell id="o_6xJmgHsbREOn0kz3Pv-31" value="kurzusnev" style="ellipse;whiteSpace=wrap;html=1;" vertex="1" parent="WIyWlLk6GJQsqaUBKTNV-1">
          <mxGeometry x="120" y="585" width="120" height="80" as="geometry" />
        </mxCell>
        <mxCell id="o_6xJmgHsbREOn0kz3Pv-32" value="kredit" style="ellipse;whiteSpace=wrap;html=1;" vertex="1" parent="WIyWlLk6GJQsqaUBKTNV-1">
          <mxGeometry x="250" y="585" width="120" height="80" as="geometry" />
        </mxCell>
        <mxCell id="o_6xJmgHsbREOn0kz3Pv-33" value="hely" style="ellipse;whiteSpace=wrap;html=1;" vertex="1" parent="WIyWlLk6GJQsqaUBKTNV-1">
          <mxGeometry x="390" y="585" width="120" height="80" as="geometry" />
        </mxCell>
        <mxCell id="o_6xJmgHsbREOn0kz3Pv-34" value="evf" style="rhombus;whiteSpace=wrap;html=1;" vertex="1" parent="WIyWlLk6GJQsqaUBKTNV-1">
          <mxGeometry x="250" y="360" width="80" height="80" as="geometry" />
        </mxCell>
        <mxCell id="o_6xJmgHsbREOn0kz3Pv-35" value="idopont" style="ellipse;whiteSpace=wrap;html=1;" vertex="1" parent="WIyWlLk6GJQsqaUBKTNV-1">
          <mxGeometry x="530" y="585" width="120" height="80" as="geometry" />
        </mxCell>
        <mxCell id="o_6xJmgHsbREOn0kz3Pv-36" value="oktato" style="ellipse;whiteSpace=wrap;html=1;" vertex="1" parent="WIyWlLk6GJQsqaUBKTNV-1">
          <mxGeometry x="670" y="585" width="120" height="80" as="geometry" />
        </mxCell>
        <mxCell id="o_6xJmgHsbREOn0kz3Pv-37" value="" style="endArrow=none;html=1;rounded=0;exitX=0.5;exitY=0;exitDx=0;exitDy=0;entryX=0.5;entryY=1;entryDx=0;entryDy=0;" edge="1" parent="WIyWlLk6GJQsqaUBKTNV-1" source="o_6xJmgHsbREOn0kz3Pv-31" target="o_6xJmgHsbREOn0kz3Pv-23">
          <mxGeometry width="50" height="50" relative="1" as="geometry">
            <mxPoint x="460" y="460" as="sourcePoint" />
            <mxPoint x="510" y="410" as="targetPoint" />
          </mxGeometry>
        </mxCell>
        <mxCell id="o_6xJmgHsbREOn0kz3Pv-38" value="" style="endArrow=none;html=1;rounded=0;exitX=0.5;exitY=0;exitDx=0;exitDy=0;entryX=0.5;entryY=1;entryDx=0;entryDy=0;" edge="1" parent="WIyWlLk6GJQsqaUBKTNV-1" source="o_6xJmgHsbREOn0kz3Pv-32" target="o_6xJmgHsbREOn0kz3Pv-23">
          <mxGeometry width="50" height="50" relative="1" as="geometry">
            <mxPoint x="460" y="460" as="sourcePoint" />
            <mxPoint x="510" y="410" as="targetPoint" />
          </mxGeometry>
        </mxCell>
        <mxCell id="o_6xJmgHsbREOn0kz3Pv-39" value="" style="endArrow=none;html=1;rounded=0;exitX=0.5;exitY=0;exitDx=0;exitDy=0;entryX=0.5;entryY=1;entryDx=0;entryDy=0;" edge="1" parent="WIyWlLk6GJQsqaUBKTNV-1" source="o_6xJmgHsbREOn0kz3Pv-33" target="o_6xJmgHsbREOn0kz3Pv-23">
          <mxGeometry width="50" height="50" relative="1" as="geometry">
            <mxPoint x="460" y="460" as="sourcePoint" />
            <mxPoint x="510" y="410" as="targetPoint" />
          </mxGeometry>
        </mxCell>
        <mxCell id="o_6xJmgHsbREOn0kz3Pv-40" value="" style="endArrow=none;html=1;rounded=0;exitX=0.5;exitY=0;exitDx=0;exitDy=0;entryX=0.5;entryY=1;entryDx=0;entryDy=0;" edge="1" parent="WIyWlLk6GJQsqaUBKTNV-1" source="o_6xJmgHsbREOn0kz3Pv-35" target="o_6xJmgHsbREOn0kz3Pv-23">
          <mxGeometry width="50" height="50" relative="1" as="geometry">
            <mxPoint x="460" y="460" as="sourcePoint" />
            <mxPoint x="510" y="410" as="targetPoint" />
          </mxGeometry>
        </mxCell>
        <mxCell id="o_6xJmgHsbREOn0kz3Pv-42" value="" style="endArrow=none;html=1;rounded=0;entryX=0.5;entryY=0;entryDx=0;entryDy=0;exitX=0.5;exitY=1;exitDx=0;exitDy=0;" edge="1" parent="WIyWlLk6GJQsqaUBKTNV-1" source="o_6xJmgHsbREOn0kz3Pv-23" target="o_6xJmgHsbREOn0kz3Pv-36">
          <mxGeometry width="50" height="50" relative="1" as="geometry">
            <mxPoint x="450" y="430" as="sourcePoint" />
            <mxPoint x="510" y="410" as="targetPoint" />
          </mxGeometry>
        </mxCell>
        <mxCell id="o_6xJmgHsbREOn0kz3Pv-43" value="orado" style="ellipse;whiteSpace=wrap;html=1;" vertex="1" parent="WIyWlLk6GJQsqaUBKTNV-1">
          <mxGeometry x="810" y="585" width="120" height="80" as="geometry" />
        </mxCell>
        <mxCell id="o_6xJmgHsbREOn0kz3Pv-44" value="" style="endArrow=none;html=1;rounded=0;exitX=0.5;exitY=0;exitDx=0;exitDy=0;entryX=0.5;entryY=1;entryDx=0;entryDy=0;" edge="1" parent="WIyWlLk6GJQsqaUBKTNV-1" source="o_6xJmgHsbREOn0kz3Pv-43" target="o_6xJmgHsbREOn0kz3Pv-23">
          <mxGeometry width="50" height="50" relative="1" as="geometry">
            <mxPoint x="720" y="460" as="sourcePoint" />
            <mxPoint x="770" y="410" as="targetPoint" />
          </mxGeometry>
        </mxCell>
        <mxCell id="o_6xJmgHsbREOn0kz3Pv-45" value="nap" style="ellipse;whiteSpace=wrap;html=1;" vertex="1" parent="WIyWlLk6GJQsqaUBKTNV-1">
          <mxGeometry x="390" y="720" width="120" height="80" as="geometry" />
        </mxCell>
        <mxCell id="o_6xJmgHsbREOn0kz3Pv-46" value="ig" style="ellipse;whiteSpace=wrap;html=1;" vertex="1" parent="WIyWlLk6GJQsqaUBKTNV-1">
          <mxGeometry x="670" y="720" width="120" height="80" as="geometry" />
        </mxCell>
        <mxCell id="o_6xJmgHsbREOn0kz3Pv-47" value="tol" style="ellipse;whiteSpace=wrap;html=1;" vertex="1" parent="WIyWlLk6GJQsqaUBKTNV-1">
          <mxGeometry x="530" y="720" width="120" height="80" as="geometry" />
        </mxCell>
        <mxCell id="o_6xJmgHsbREOn0kz3Pv-48" value="" style="endArrow=none;html=1;rounded=0;exitX=0.5;exitY=0;exitDx=0;exitDy=0;entryX=0.5;entryY=1;entryDx=0;entryDy=0;" edge="1" parent="WIyWlLk6GJQsqaUBKTNV-1" source="o_6xJmgHsbREOn0kz3Pv-45" target="o_6xJmgHsbREOn0kz3Pv-35">
          <mxGeometry width="50" height="50" relative="1" as="geometry">
            <mxPoint x="710" y="770" as="sourcePoint" />
            <mxPoint x="760" y="720" as="targetPoint" />
          </mxGeometry>
        </mxCell>
        <mxCell id="o_6xJmgHsbREOn0kz3Pv-49" value="" style="endArrow=none;html=1;rounded=0;exitX=0.5;exitY=0;exitDx=0;exitDy=0;entryX=0.5;entryY=1;entryDx=0;entryDy=0;" edge="1" parent="WIyWlLk6GJQsqaUBKTNV-1" source="o_6xJmgHsbREOn0kz3Pv-47" target="o_6xJmgHsbREOn0kz3Pv-35">
          <mxGeometry width="50" height="50" relative="1" as="geometry">
            <mxPoint x="710" y="770" as="sourcePoint" />
            <mxPoint x="760" y="720" as="targetPoint" />
          </mxGeometry>
        </mxCell>
        <mxCell id="o_6xJmgHsbREOn0kz3Pv-50" value="" style="endArrow=none;html=1;rounded=0;exitX=0.5;exitY=0;exitDx=0;exitDy=0;entryX=0.5;entryY=1;entryDx=0;entryDy=0;" edge="1" parent="WIyWlLk6GJQsqaUBKTNV-1" source="o_6xJmgHsbREOn0kz3Pv-46" target="o_6xJmgHsbREOn0kz3Pv-35">
          <mxGeometry width="50" height="50" relative="1" as="geometry">
            <mxPoint x="710" y="770" as="sourcePoint" />
            <mxPoint x="760" y="720" as="targetPoint" />
          </mxGeometry>
        </mxCell>
        <mxCell id="o_6xJmgHsbREOn0kz3Pv-51" value="" style="endArrow=none;html=1;rounded=0;exitX=1;exitY=0.5;exitDx=0;exitDy=0;entryX=0;entryY=0.5;entryDx=0;entryDy=0;" edge="1" parent="WIyWlLk6GJQsqaUBKTNV-1" source="o_6xJmgHsbREOn0kz3Pv-9" target="o_6xJmgHsbREOn0kz3Pv-34">
          <mxGeometry width="50" height="50" relative="1" as="geometry">
            <mxPoint x="390" y="700" as="sourcePoint" />
            <mxPoint x="440" y="650" as="targetPoint" />
          </mxGeometry>
        </mxCell>
      </root>
    </mxGraphModel>
  </diagram>
</mxfile>
